<svg id="background" xmlns="http://www.w3.org/2000/svg" xmlns:xlink="http://www.w3.org/1999/xlink" viewBox="0 0 500 500"><defs><style>.cls-1{fill:none;}.cls-2{fill:#ff968f;}.cls-3{fill:#ffc3bf;}.cls-4{fill:#ff776e;}.cls-5{fill:url(#Unnamed_Pattern);}.cls-6{font-size:126.95px;stroke:#fff;stroke-miterlimit:10;stroke-width:4.49px;font-family:Buxton Sketch;}</style><pattern id="Unnamed_Pattern" data-name="Unnamed Pattern" x="0.61" y="-9.83" width="150" height="100" patternUnits="userSpaceOnUse" viewBox="0 0 150 100"><rect class="cls-1" width="150" height="100"/><path class="cls-2" d="M118.85,77.35c-4.5,6-5.88,15.09.77,20.21s14.59,0,19.31-5.36c4.59-5.19,6.48-14,.35-18.93-5.58-4.47-15.54-3.84-20,1.89-4.19,5.37-1.54,15.85,4.89,18.59s12.46-7,12.75-12.33c0.39-7.13-6.47-12.28-12.93-8.47-3.29,1.94-5,5.42-6.26,8.88-1.34,3.68.45,6.84,3.29,9.44,7.26,6.67,13.45-1.78,15.69-8.49s-4.68-10-10.15-7.37c-5.75,2.77-13.06,11.11-8.48,17.68,4.43,6.36,12.73,2.57,16.87-1.86s8.59-12.92,1.88-17.28c-6.55-4.26-15.11,4-17.46,9.64C116.7,90,120.81,96.51,128,95.43c7-1.06,14.2-7.81,11.16-15.38-3.21-8-13.69-5.48-16.94,1-3.44,6.84-.05,16.48,8.36,10.73,3.09-2.11,6.52-5.32,7-9.25,0.31-2.72-1.06-7-4.24-7.53s-8.07,4.52-9.64,7A11.06,11.06,0,0,0,123,93.11a2.08,2.08,0,0,0,2.8.73,22.73,22.73,0,0,0,11.83-14.31,2.07,2.07,0,0,0-3-2.32c-3.34,1.72-15.21,10.92-9.54,15.4,6.37,5,10.77-10.28,10.84-13.93,0-1.44-1.8-2.7-3.08-1.77-4,2.87-13,10.69-10.24,16.51,3.2,6.79,9.12-2.56,10.57-5.43,1.19-2.36-2.37-4.45-3.56-2.08a20.38,20.38,0,0,1-2.51,4.14c-2.42,2.87.67-2,1.05-2.59a25.82,25.82,0,0,1,6.76-7l-3.08-1.77a15.4,15.4,0,0,1-1.49,6.67c-0.22.46-2.71,4-1.28,2.19a22.28,22.28,0,0,1,7.63-6.8l-3-2.32a18.79,18.79,0,0,1-9.94,11.86l2.8,0.73c-2.75-5.71,3-9.88,7.24-12.31H131.7c6.5,3.41-6,14-6.79,7.7-0.78-6.6,11.31-11.1,10.67-2.09-0.26,3.7-10.1,11.46-12.84,4.74-1.48-3.62,3.46-9.1,6.42-10.75,2.73-1.53,7-.93,7,2.76,0,2.17-1.81,4.58-3.12,6.15-2.11,2.54-5.94,6.42-9.66,4.87-7.06-2.95,1.28-10.72,4.07-12.47q3.4-2.92,5,2.62l-0.78,1.49-1.56,3q-0.71,2.45-3.66,1.14c-2.74,0-4.93-.49-5-3.71-0.05-1.55,1.07-3.51,1.88-4.74,2-3,6.2-5.28,8.7-1.41,1.71,2.64.46,5.72-1.07,8.11-1.26,2-3.35,5-6.35,2.88-1.28-.92-2.66-4.22-3-5.5-1.61-5.62,3.63-9.14,8.66-9,4.65,0.12,9.06,2.65,8.91,7.8-0.12,4-2.89,7.25-5.84,9.67-3.45,2.83-8.08,5.57-11.94,1.67s-2.07-9.83.9-13.67a2.15,2.15,0,1,0-3.39-2.61h0Z"/><path class="cls-2" d="M107.71,71.9L107.83,76a2,2,0,0,0,3.9.53,9.28,9.28,0,0,0-1.36-8,2,2,0,0,0-2.71-.71c-3.71,2.32-2.87,7.86,1,9.41,1.54,0.62,2.75-1.14,2.48-2.48A10.43,10.43,0,0,0,108,69.13a2.07,2.07,0,0,0-3.49,1.44c-0.23,3.15,2.07,6.65,5.36,6.95,2,0.18,2.5-2.68,1-3.63s-2.4-1.48-2.26-3.31L105.09,72a6.89,6.89,0,0,1,2.2,3.79l2.48-2.48c-0.69-.26-0.63-1.76-0.1-2.11L107,70.52a5.69,5.69,0,0,1,.95,4.94L111.8,76,112,71.9c0.15-2.76-4.39-2.79-4.31,0h0Z"/><path class="cls-2" d="M113.77,62.19c0.49,1.1.94,2.22,1.49,3.28A2.05,2.05,0,0,0,119,65c0.8-3.44,0-6.9-3.11-8.92a2,2,0,0,0-2,0c-3.5,1.81-4.64,7.23-1.09,9.64,3,2,7.84.38,8.28-3.42a5.24,5.24,0,0,0-2.34-4.81c-1.53-1-4.2-1.43-5.4.31-2.36,3.42,0,8,3.45,9.43a2.06,2.06,0,0,0,2.5-1.42c0.4-1.15.86-2.29,1.16-3.47,0.52-2.09-2.69-3.67-3.64-1.53-0.57,1.27-1,2.61-1.43,3.93l2.5-1.42a2.5,2.5,0,0,1-1-3.46l-1.22.94c1.33-.44,2.13,1.71.3,1.78s-1.3-2.45,0-3h-2c1,0.75,2,2.58,1.45,3.85L119,63.91c-0.36-1.14-.83-2.26-1.26-3.38a2.15,2.15,0,1,0-3.94,1.66h0Z"/><path class="cls-2" d="M124.27,59.07a5.26,5.26,0,0,0,2.13,5.83,2.09,2.09,0,0,0,2.84-.75,7.12,7.12,0,0,0,.71-5.41,6.36,6.36,0,0,0-3.54-4.07,2.11,2.11,0,0,0-3,1.23c-1.07,2.92.53,7.37,4,7.87a2,2,0,0,0,2.33-1.14,2,2,0,0,0-.81-2.47c-0.89-.47-2.31-1.39-1.7-2.68l-2.33.95A2.23,2.23,0,0,1,126,59.83a2.47,2.47,0,0,1,.16,1,3.11,3.11,0,0,1-.09.52c0,0.16-.29.5-0.11,0.3l2.52-.33a0.91,0.91,0,0,1-.07-1.09c1-2.57-3.4-3.85-4.16-1.15h0Z"/><path class="cls-2" d="M133.93,64.35c0.51,0.7,1.06,1.38,1.52,2.11A2.06,2.06,0,1,0,139,64.38c-0.5-.7-0.91-1.47-1.36-2.21a2.16,2.16,0,1,0-3.72,2.18h0Z"/><polygon class="cls-1" points="124.61 130.19 157.5 153.88 180.12 122.47 147.23 98.78 124.61 130.19"/><polygon class="cls-1" points="147.63 78.63 179.96 98.6 201.04 64.46 168.72 44.5 147.63 78.63"/><polygon class="cls-1" points="72.64 128.63 104.96 148.6 126.04 114.46 93.72 94.5 72.64 128.63"/><polygon class="cls-1" points="-25.39 130.19 7.5 153.88 30.12 122.47 -2.77 98.78 -25.39 130.19"/><polygon class="cls-1" points="-2.37 78.63 29.96 98.6 51.04 64.46 18.72 44.5 -2.37 78.63"/><path class="cls-3" d="M32.63,71.24c-4.91-3.27-11.88-4.1-17.26-1.46a11.82,11.82,0,0,0-3.65,1.43,6.45,6.45,0,0,0-3.11,7c-0.49,5.44,3.57,10.44,8.75,12.22,5.81,2,15.53,1.76,19.72-3.46S37.53,74.51,32.63,71.24Zm-8.87,2.61,0.47,0.08H23.44a19.31,19.31,0,0,0-4.73-.22l-1.65.16a8.57,8.57,0,0,1,1.45-.3c0.24,0,.48,0,0.72-0.05A26.91,26.91,0,0,1,23.76,73.85Z"/><path class="cls-3" d="M16.21,59.19a1.88,1.88,0,0,0-1.77-1.44,7,7,0,0,0-7,6.41,1.55,1.55,0,0,0,.71,1.5,4,4,0,0,0,.53,1.48,2,2,0,0,0,2.16,1A7.9,7.9,0,0,0,16.21,59.19Z"/><path class="cls-3" d="M24.76,52.75a1.73,1.73,0,0,0-1.44-.27c-3.24,1.07-6.61,3.82-5.12,7.61A4.75,4.75,0,0,0,19.61,62a1.94,1.94,0,0,0,2.75,1.15,7.44,7.44,0,0,0,.72-0.46,8.81,8.81,0,0,0,3.51-2.27C28.8,58.09,28.46,53.26,24.76,52.75Z"/><path class="cls-3" d="M37,59.56a9.77,9.77,0,0,0,.41-1.77A1.83,1.83,0,0,0,36.22,56c-0.11-.22-0.22-0.44-0.35-0.66a1.92,1.92,0,0,0-2.55-.78c-1.82,1.07-3.78,2.37-4.5,4.47a5.19,5.19,0,0,0,.43,4.37,1.93,1.93,0,0,0,2.16,1.81,1.92,1.92,0,0,0,2.87.35A8.26,8.26,0,0,0,37,59.56Z"/><path class="cls-3" d="M41.82,73.72a2.45,2.45,0,0,0,.25-0.28c1.42-1.9,3.63-4.14,3-6.76a3.44,3.44,0,0,0-2.72-2.5,1.82,1.82,0,0,0-1.48-.86A3.73,3.73,0,0,0,37,66.68a4.93,4.93,0,0,0-.46,1.48c-0.33,2.26.68,4.3,1.72,6.22A1.87,1.87,0,0,0,41.7,74C41.75,73.93,41.78,73.82,41.82,73.72Z"/><polygon class="cls-1" points="124.61 30.19 157.5 53.88 180.12 22.47 147.23 -1.22 124.61 30.19"/><path class="cls-4" d="M145.35,25.67c-3.89,1.64-8.31,5-9,9.45-0.61,4,3.32,6,6.36,7.67,6.62,3.54,19.15,7.91,23.37-1.13,1.83-3.92-.37-7.32-3-10.28-3-3.38-6.41-8.41-11.23-9-6.12-.8-15.58,5.63-11.9,12.43,3.44,6.36,14.19,5.71,17.26-.4,3.51-7-5.73-11.41-11.44-9.55s-11.82,11-5.41,15.81c5.27,3.93,16.06-2,17.47-7.69A5.45,5.45,0,0,0,154,26.48c-3.55-1.2-7.89.69-10.69,2.76-2.57,1.9-4.65,4.82-3.68,8.17,1.15,4,5.6,5.45,9.26,6.13s8.16,0.83,11-2.13a6.13,6.13,0,0,0,.32-8.28c-3.57-4.41-17.38-3.66-15.54,3.81,1.49,6.07,15.06,6.47,16.82.58,2.63-8.78-12.56-10.43-17.54-7.37-2.33,1.43-3.87,4.37-3,7.11,1.22,3.7,6.34,4.61,9.67,5,2.67,0.32,7.56.83,9.58-1.39,2.51-2.75-.45-6.8-2.63-8.73-3.29-2.91-8.24-4.47-12.52-3.31-3,.83-5.5,3.4-3.57,6.57,2.74,4.51,19.13,12.45,21,3.58,0.73-3.46-2.5-6-5.41-7.08s-9-2.56-11.62,0c-2.87,2.88,1.26,5.09,3.63,6.16a32.76,32.76,0,0,0,17.19,2.48,1.64,1.64,0,0,0,.67-2.94c-3-2.15-17.16-9.93-18.44-2.55-1.09,6.29,12.17,6.92,15.87,6.54a1.63,1.63,0,0,0,1.22-2.27,7.69,7.69,0,0,0-7-5.31c-2.42,0-4.88,1.26-5,3.87-0.24,5.11,10,8.13,11.22,3.1a1.77,1.77,0,0,0-.6-1.91c-2.6-2.31-6-1.6-8.67,0a1.64,1.64,0,0,0,.09,2.6,4.81,4.81,0,0,0,6.42-.05l-2.66-1,0.19,2.65a1.67,1.67,0,0,0,3,.72,7.12,7.12,0,0,0,1.39-3c0.56-2-2.52-3.18-3.09-1.16l-1,2.21,3,0.72-0.19-2.65a1.68,1.68,0,0,0-2.66-1l-2.44,0,0.09,2.6,4.67,0-0.6-1.91c0,0.12-2.84,1.38-2.11-1.06s2.55,0.6,3,1.87l1.22-2.27a19.36,19.36,0,0,1-7.56-.58c-0.73-.21-4.05-0.93-2.73-2.31,0.49-.51,4.76,1.13,5.38,1.35a25.88,25.88,0,0,1,6.14,3.42l0.67-2.94a29.77,29.77,0,0,1-10.43-.58,29,29,0,0,1-4.44-1.45,13,13,0,0,1-1.91-.87c0.09-.81,2.72-0.34,3.2-0.28a14.56,14.56,0,0,1,4.54,1.14c2.36,1.14,1.88,4.52-1,4.24s-10.12-2.86-10.48-6c-0.43-3.71,7.49-1,9.38.33,1.34,1,4.37,3.94,1.78,5.08-1.4.61-3.92,0.23-5.45,0s-3.46-.33-4.68-1.12c-5.11-3.29.3-5.6,3.06-5.79a16.62,16.62,0,0,1,4.76.33c0.88,0.21,3.2.8,3.64,1.71,2,4-2.33,4-4.07,4-0.76,0-3,.1-3.58-0.44l-0.33-1.67q-1.24-1.93.67-2c1.55-1.08,6.47-.72,7.24,1.09l-0.36,2.23q0.59,2.52-1.68,2.74a6.67,6.67,0,0,1-3.67.55,19.07,19.07,0,0,1-5.5-1.1c-2.39-.91-2.37-0.94-2.78-3.5-0.35-2.2-.62-2.28.81-3.57A12.39,12.39,0,0,1,148,30.36a7,7,0,0,1,2.73-.72l1.51-.24,1.59,4.23c-0.4,1.51-3.74,3.19-5,3.75-1,.44-3.26,1.46-4.38,1.09-1.81-.59-3.41-3.58-3-5.24a6,6,0,0,1,.81-1.66c1.88-3.07,6.3-5.25,9.8-3.35,2.73,1.48,2.88,4.55.45,6.51a6.86,6.86,0,0,1-5.3,1.15c-2.69-.4-5-2.35-4.52-5.34,0.29-1.78,3.08-3.41,4.55-4.06,5.56-2.49,8.93,2.07,12.36,5.83,1.37,1.51,3.64,3.48,3.88,5.58,0.41,3.58-3.27,5.53-6.2,5.83-4.06.4-8.46-1.45-12.07-3.23-2.79-1.38-6.88-3.7-4.54-7.14a12.62,12.62,0,0,1,6.13-4.51c2.07-.8.61-4-1.44-3.17h0Z"/><path class="cls-4" d="M136,18.73c-1.46,1.58-2.51,3.88-.8,5.78s3.8,0.86,5-.81c1.3-1.84,2.53-4.33,1.62-6.64a4.11,4.11,0,0,0-5.07-2.65c-3.86,1.42-4,9.93.42,10.89,2.37,0.52,3.74-1.76,4.46-3.62a10.65,10.65,0,0,0,.1-7.31,1.66,1.66,0,0,0-2.12-.83,8.53,8.53,0,0,0-5.67,7.72,4.55,4.55,0,0,0,1.4,3.74,2.58,2.58,0,0,0,3.51.21c1.53-1.36-.51-3.89-2-2.52h0.73l-0.18-.25a6.2,6.2,0,0,0-.14-0.86,5.08,5.08,0,0,1,.54-2.27,5.6,5.6,0,0,1,3.19-2.86l-2.24-1.22a9.36,9.36,0,0,1,0,4.76c-0.06.21-.69,2.19-1,2.17s-0.43-2-.42-2.14c0-.61-0.06-1.81.39-2.28,0.79-.81,1.29.46,1.21,1.24a5.58,5.58,0,0,1-1,2.28c-0.2.31-.79,0.81-0.32,0.84s0.79-.74,1.05-1A1.74,1.74,0,1,0,136,18.73h0Z"/><path class="cls-4" d="M153.21,11.55a1.66,1.66,0,0,0,.08-2.17,12.65,12.65,0,0,1,.24-1.62,1.67,1.67,0,0,0-1.8-2.16l-0.28,0c-0.1-.12-0.2-0.25-0.31-0.36A1.65,1.65,0,0,0,148.86,5c-0.13.13-.23,0.28-0.35,0.41a4.9,4.9,0,0,0-2.88,3.16c-0.66,1.83-1.21,4.76.31,6.33a3.24,3.24,0,0,0,1.54.87A1.67,1.67,0,0,0,150.12,17,7.63,7.63,0,0,0,153.21,11.55Z"/><path class="cls-2" d="M43.85,27.35c-4.5,6-5.88,15.09.77,20.21s14.59,0,19.31-5.36c4.59-5.19,6.48-14,.35-18.93-5.58-4.47-15.54-3.84-20,1.89C40.09,30.53,42.73,41,49.17,43.75s12.46-7,12.75-12.33c0.39-7.13-6.47-12.28-12.93-8.47-3.29,1.94-5,5.42-6.26,8.88-1.34,3.68.45,6.84,3.29,9.44,7.26,6.67,13.45-1.78,15.69-8.49s-4.68-10-10.15-7.37c-5.75,2.77-13.06,11.11-8.48,17.68,4.43,6.36,12.73,2.57,16.87-1.86S68.53,28.31,61.83,24c-6.55-4.26-15.11,4-17.46,9.64C41.7,40,45.81,46.51,53,45.43c7-1.06,14.2-7.81,11.16-15.38-3.21-8-13.69-5.48-16.94,1-3.44,6.84-.05,16.48,8.36,10.73,3.09-2.11,6.52-5.32,7-9.25,0.31-2.72-1.06-7-4.24-7.53s-8.07,4.52-9.64,7A11.06,11.06,0,0,0,48,43.11a2.08,2.08,0,0,0,2.8.73A22.73,22.73,0,0,0,62.63,29.54a2.07,2.07,0,0,0-3-2.32c-3.34,1.72-15.21,10.92-9.54,15.4,6.37,5,10.77-10.28,10.84-13.93,0-1.44-1.8-2.7-3.08-1.77-4,2.87-13,10.69-10.24,16.51,3.2,6.79,9.12-2.56,10.57-5.43,1.19-2.36-2.37-4.45-3.56-2.08a20.38,20.38,0,0,1-2.51,4.14c-2.42,2.87.67-2,1.05-2.59a25.82,25.82,0,0,1,6.76-7L56.82,28.7a15.4,15.4,0,0,1-1.49,6.67c-0.22.46-2.71,4-1.28,2.19a22.28,22.28,0,0,1,7.63-6.8l-3-2.32a18.79,18.79,0,0,1-9.94,11.86L51.53,41c-2.75-5.71,3-9.88,7.24-12.31H56.7c6.5,3.41-6,14-6.79,7.7-0.78-6.6,11.31-11.1,10.67-2.09C60.32,38,50.48,45.8,47.74,39.08c-1.48-3.62,3.46-9.1,6.42-10.75,2.73-1.53,7-.93,7,2.76,0,2.17-1.81,4.58-3.12,6.15-2.11,2.54-5.94,6.42-9.66,4.87-7.06-2.95,1.28-10.72,4.07-12.47q3.4-2.92,5,2.62l-0.78,1.49-1.56,3q-0.71,2.45-3.66,1.14c-2.74,0-4.93-.49-5-3.71-0.05-1.55,1.07-3.51,1.88-4.74,2-3,6.2-5.28,8.7-1.41,1.71,2.64.46,5.72-1.07,8.11-1.26,2-3.35,5-6.35,2.88-1.28-.92-2.66-4.22-3-5.5-1.61-5.62,3.63-9.14,8.66-9,4.65,0.12,9.06,2.65,8.91,7.8-0.12,4-2.89,7.25-5.84,9.67-3.45,2.83-8.08,5.57-11.94,1.67s-2.07-9.83.9-13.67a2.15,2.15,0,1,0-3.39-2.61h0Z"/><path class="cls-2" d="M32.71,21.9L32.83,26a2,2,0,0,0,3.9.53,9.28,9.28,0,0,0-1.36-8,2,2,0,0,0-2.71-.71c-3.71,2.32-2.87,7.86,1,9.41,1.54,0.62,2.75-1.14,2.48-2.48A10.43,10.43,0,0,0,33,19.13a2.07,2.07,0,0,0-3.49,1.44c-0.23,3.15,2.07,6.65,5.36,6.95,2,0.18,2.5-2.68,1-3.63s-2.4-1.48-2.26-3.31L30.09,22a6.89,6.89,0,0,1,2.2,3.79l2.48-2.48c-0.69-.26-0.63-1.76-0.1-2.1L32,20.52a5.69,5.69,0,0,1,.95,4.94L36.8,26,37,21.9c0.15-2.76-4.39-2.79-4.31,0h0Z"/><path class="cls-2" d="M38.77,12.19c0.49,1.1.94,2.22,1.49,3.28A2.05,2.05,0,0,0,44,15c0.8-3.44,0-6.9-3.11-8.92a2,2,0,0,0-2,0c-3.5,1.81-4.64,7.23-1.09,9.64,3,2,7.84.38,8.28-3.42a5.24,5.24,0,0,0-2.34-4.81c-1.53-1-4.2-1.43-5.4.31-2.36,3.42,0,8,3.45,9.43a2.06,2.06,0,0,0,2.5-1.42c0.4-1.15.86-2.29,1.16-3.47,0.52-2.09-2.69-3.67-3.64-1.53-0.57,1.27-1,2.61-1.43,3.93l2.5-1.42a2.5,2.5,0,0,1-1-3.46l-1.22.94c1.33-.44,2.13,1.71.3,1.78s-1.3-2.44,0-3h-2c1,0.75,2,2.58,1.45,3.85L44,13.91c-0.36-1.14-.83-2.26-1.26-3.38a2.15,2.15,0,1,0-3.94,1.66h0Z"/><path class="cls-2" d="M49.27,9.07A5.26,5.26,0,0,0,51.4,14.9a2.09,2.09,0,0,0,2.84-.75A7.12,7.12,0,0,0,55,8.74a6.36,6.36,0,0,0-3.54-4.07,2.11,2.11,0,0,0-3,1.23c-1.07,2.92.53,7.37,4,7.87a2,2,0,0,0,2.33-1.14,2,2,0,0,0-.81-2.47c-0.89-.47-2.31-1.39-1.7-2.68l-2.33.95A2.23,2.23,0,0,1,51,9.83a2.47,2.47,0,0,1,.16,1,3.11,3.11,0,0,1-.09.52c0,0.16-.29.5-0.11,0.3l2.52-.33a0.91,0.91,0,0,1-.07-1.09c1-2.57-3.4-3.85-4.16-1.15h0Z"/><path class="cls-2" d="M58.93,14.35c0.51,0.7,1.06,1.38,1.52,2.11A2.06,2.06,0,1,0,64,14.38c-0.5-.7-0.91-1.47-1.36-2.21a2.16,2.16,0,1,0-3.72,2.18h0Z"/><polygon class="cls-1" points="49.6 80.19 82.5 103.88 105.12 72.47 72.23 48.78 49.6 80.19"/><path class="cls-4" d="M70.35,75.67c-3.89,1.64-8.31,5-9,9.45-0.61,4,3.32,6,6.36,7.67,6.62,3.54,19.15,7.91,23.37-1.13,1.83-3.92-.37-7.32-3-10.28-3-3.38-6.41-8.41-11.23-9C70.75,71.55,61.3,78,65,84.78c3.44,6.36,14.19,5.71,17.26-.4,3.51-7-5.73-11.41-11.44-9.55S59,85.87,65.38,90.65c5.27,3.93,16.06-2,17.47-7.69A5.45,5.45,0,0,0,79,76.48c-3.55-1.2-7.89.69-10.69,2.76-2.57,1.9-4.65,4.82-3.68,8.17,1.15,4,5.6,5.45,9.26,6.13s8.16,0.83,11-2.13a6.13,6.13,0,0,0,.32-8.28c-3.57-4.41-17.38-3.66-15.54,3.81,1.5,6.07,15.06,6.47,16.82.58C89.14,78.74,73.94,77.09,69,80.15c-2.33,1.43-3.87,4.37-3,7.11,1.22,3.7,6.34,4.61,9.67,5,2.67,0.32,7.56.83,9.58-1.39,2.51-2.75-.45-6.8-2.63-8.73-3.29-2.91-8.24-4.47-12.52-3.31-3,.83-5.5,3.4-3.57,6.57,2.74,4.51,19.13,12.45,21,3.58,0.73-3.46-2.5-6-5.41-7.08s-9-2.56-11.62,0c-2.87,2.88,1.26,5.09,3.63,6.16a32.76,32.76,0,0,0,17.19,2.48A1.64,1.64,0,0,0,92,87.68c-3-2.15-17.16-9.93-18.44-2.55-1.09,6.29,12.17,6.92,15.87,6.54a1.63,1.63,0,0,0,1.22-2.27,7.69,7.69,0,0,0-7-5.31c-2.42,0-4.88,1.26-5,3.87-0.24,5.11,10,8.13,11.22,3.1a1.77,1.77,0,0,0-.6-1.91c-2.6-2.31-6-1.6-8.67,0a1.64,1.64,0,0,0,.09,2.6,4.81,4.81,0,0,0,6.42-.05l-2.66-1,0.19,2.65a1.67,1.67,0,0,0,3,.72,7.12,7.12,0,0,0,1.39-3c0.56-2-2.52-3.18-3.09-1.16l-1,2.21,3,0.72-0.19-2.65a1.68,1.68,0,0,0-2.66-1l-2.44,0,0.09,2.6,4.67,0-0.6-1.91c0,0.12-2.84,1.38-2.11-1.06s2.55,0.6,3,1.87l1.22-2.27a19.36,19.36,0,0,1-7.56-.58c-0.73-.21-4.05-0.93-2.73-2.31C79.07,85,83.34,86.67,84,86.9a25.88,25.88,0,0,1,6.14,3.42l0.67-2.94a29.77,29.77,0,0,1-10.43-.58,29,29,0,0,1-4.44-1.45A13,13,0,0,1,74,84.47c0.09-.81,2.72-0.34,3.2-0.28a14.56,14.56,0,0,1,4.54,1.14c2.36,1.14,1.88,4.52-1,4.24s-10.12-2.86-10.48-6c-0.43-3.71,7.49-1,9.38.33C81,84.88,84,87.85,81.4,89c-1.4.61-3.92,0.23-5.45,0s-3.46-.33-4.68-1.12c-5.11-3.29.3-5.6,3.06-5.79a16.62,16.62,0,0,1,4.76.33c0.88,0.2,3.2.8,3.64,1.71,2,4-2.33,4-4.07,4-0.76,0-3,.1-3.58-0.44l-0.33-1.67q-1.24-1.93.67-2c1.55-1.08,6.47-.72,7.24,1.09l-0.36,2.23q0.59,2.52-1.68,2.74a6.67,6.67,0,0,1-3.67.55,19.07,19.07,0,0,1-5.5-1.1c-2.39-.91-2.37-0.94-2.78-3.5-0.35-2.2-.62-2.28.81-3.57A12.39,12.39,0,0,1,73,80.36a7,7,0,0,1,2.73-.72l1.51-.24,1.59,4.23c-0.4,1.51-3.74,3.19-5,3.75-1,.44-3.26,1.46-4.38,1.09-1.81-.59-3.41-3.58-3-5.24a6,6,0,0,1,.81-1.66c1.88-3.07,6.3-5.25,9.8-3.35,2.73,1.48,2.88,4.55.45,6.51a6.86,6.86,0,0,1-5.3,1.15c-2.69-.4-5-2.35-4.52-5.34,0.29-1.78,3.08-3.41,4.55-4.06C77.8,74,81.17,78.56,84.6,82.32c1.37,1.51,3.64,3.48,3.88,5.58,0.41,3.58-3.27,5.53-6.2,5.83-4.06.4-8.46-1.45-12.07-3.23-2.79-1.38-6.88-3.7-4.54-7.14a12.62,12.62,0,0,1,6.13-4.51c2.07-.8.61-4-1.44-3.17h0Z"/><path class="cls-4" d="M61,68.73c-1.46,1.58-2.51,3.88-.8,5.78s3.8,0.86,5-.81c1.3-1.84,2.53-4.33,1.62-6.64a4.11,4.11,0,0,0-5.07-2.65c-3.86,1.42-4,9.93.42,10.89,2.37,0.52,3.74-1.76,4.46-3.62a10.65,10.65,0,0,0,.1-7.31,1.66,1.66,0,0,0-2.12-.83,8.53,8.53,0,0,0-5.67,7.72A4.55,4.55,0,0,0,60.29,75a2.58,2.58,0,0,0,3.51.21c1.53-1.36-.51-3.89-2-2.52h0.73l-0.18-.25a6.2,6.2,0,0,0-.14-0.86,5.08,5.08,0,0,1,.54-2.27,5.6,5.6,0,0,1,3.19-2.86l-2.24-1.22a9.36,9.36,0,0,1,0,4.76c-0.06.21-.69,2.19-1,2.17s-0.42-2-.42-2.14c0-.61-0.06-1.81.39-2.28,0.79-.81,1.29.46,1.21,1.24a5.58,5.58,0,0,1-1,2.28c-0.2.31-.79,0.81-0.32,0.84s0.79-.74,1.05-1A1.74,1.74,0,1,0,61,68.73h0Z"/><path class="cls-4" d="M78.21,61.55a1.66,1.66,0,0,0,.08-2.17,12.65,12.65,0,0,1,.24-1.62,1.67,1.67,0,0,0-1.8-2.16l-0.28,0c-0.1-.12-0.2-0.25-0.31-0.36A1.65,1.65,0,0,0,73.86,55c-0.13.13-.23,0.28-0.35,0.41a4.9,4.9,0,0,0-2.88,3.16c-0.66,1.83-1.21,4.76.31,6.33a3.24,3.24,0,0,0,1.54.87A1.67,1.67,0,0,0,75.12,67,7.63,7.63,0,0,0,78.21,61.55Z"/><path class="cls-4" d="M87.42,62.08a5.25,5.25,0,0,0-2.76-4.28,1.79,1.79,0,0,0-.77-0.28,4,4,0,0,0-2.43.14A1.55,1.55,0,0,0,80.51,59c0,0.37,0,.74-0.06,1.11a5.46,5.46,0,0,0-1.09,2c-0.79,2.77.83,5.44,2.49,7.58a1.7,1.7,0,0,0,1.93.48C86.74,69.2,87.64,64.83,87.42,62.08Z"/><path class="cls-4" d="M93.8,79.27a11.79,11.79,0,0,0,.45-1.09c2.46-1.78,2-5.38,1.07-7.88a5.69,5.69,0,0,0-2.15-3.12L93,66.91a1.63,1.63,0,0,0-2.46-.07c-4.17,1.68-3.57,7.31-1.26,10.22A9.48,9.48,0,0,0,91,79.69,1.64,1.64,0,0,0,93.8,79.27Z"/><polygon class="cls-1" points="72.64 28.63 104.96 48.6 126.04 14.46 93.72 -5.5 72.64 28.63"/><path class="cls-3" d="M107.63,21.24c-4.91-3.27-11.88-4.1-17.26-1.46a11.82,11.82,0,0,0-3.65,1.43,6.45,6.45,0,0,0-3.11,7c-0.49,5.44,3.57,10.44,8.75,12.22,5.81,2,15.53,1.76,19.72-3.46S112.53,24.51,107.63,21.24Zm-8.87,2.61,0.47,0.08H98.44a19.31,19.31,0,0,0-4.73-.22l-1.65.16a8.57,8.57,0,0,1,1.45-.3c0.24,0,.48,0,0.72,0A26.91,26.91,0,0,1,98.76,23.85Z"/><path class="cls-3" d="M91.21,9.19a1.88,1.88,0,0,0-1.77-1.44,7,7,0,0,0-7,6.41,1.55,1.55,0,0,0,.71,1.5,4,4,0,0,0,.53,1.48,2,2,0,0,0,2.16,1A7.9,7.9,0,0,0,91.21,9.19Z"/><path class="cls-3" d="M99.76,2.75a1.73,1.73,0,0,0-1.44-.27c-3.24,1.07-6.61,3.82-5.12,7.61A4.75,4.75,0,0,0,94.61,12a1.94,1.94,0,0,0,2.75,1.15,7.44,7.44,0,0,0,.72-0.46,8.81,8.81,0,0,0,3.51-2.27C103.8,8.09,103.46,3.26,99.76,2.75Z"/><path class="cls-3" d="M112,9.56a9.77,9.77,0,0,0,.41-1.77A1.83,1.83,0,0,0,111.22,6c-0.11-.22-0.22-0.44-0.35-0.66a1.92,1.92,0,0,0-2.55-.78c-1.82,1.07-3.78,2.36-4.5,4.47a5.19,5.19,0,0,0,.43,4.37,1.93,1.93,0,0,0,2.16,1.81,1.92,1.92,0,0,0,2.87.35A8.26,8.26,0,0,0,112,9.56Z"/><path class="cls-3" d="M116.82,23.72a2.45,2.45,0,0,0,.25-0.28c1.42-1.9,3.63-4.14,3-6.76a3.44,3.44,0,0,0-2.72-2.5,1.82,1.82,0,0,0-1.48-.86A3.73,3.73,0,0,0,112,16.68a4.93,4.93,0,0,0-.46,1.48c-0.33,2.26.68,4.3,1.72,6.22a1.87,1.87,0,0,0,3.4-.35C116.75,23.93,116.78,23.82,116.82,23.72Z"/><polygon class="cls-1" points="-25.39 30.19 7.5 53.88 30.12 22.47 -2.77 -1.22 -25.39 30.19"/><path class="cls-4" d="M-4.65,25.67c-3.89,1.64-8.31,5-9,9.45-0.61,4,3.32,6,6.36,7.67,6.62,3.54,19.15,7.91,23.37-1.13,1.83-3.92-.37-7.32-3-10.28-3-3.38-6.41-8.41-11.23-9C-4.25,21.55-13.7,28-10,34.78c3.44,6.36,14.19,5.71,17.26-.4C10.74,27.4,1.5,23-4.21,24.83S-16,35.87-9.62,40.65c5.27,3.93,16.06-2,17.47-7.69A5.45,5.45,0,0,0,4,26.48c-3.55-1.2-7.89.69-10.69,2.76-2.57,1.9-4.65,4.82-3.68,8.17,1.15,4,5.6,5.45,9.26,6.13s8.16,0.83,11-2.13a6.13,6.13,0,0,0,.32-8.28C6.65,28.72-7.16,29.47-5.32,36.94c1.49,6.07,15.06,6.47,16.82.58C14.14,28.74-1.06,27.09-6,30.15c-2.33,1.43-3.87,4.37-3,7.11,1.22,3.7,6.34,4.61,9.67,5,2.67,0.32,7.56.83,9.58-1.39,2.51-2.75-.45-6.8-2.63-8.73C4.34,29.25-.62,27.7-4.9,28.86c-3,.83-5.5,3.4-3.57,6.57,2.74,4.51,19.13,12.45,21,3.58,0.73-3.46-2.5-6-5.41-7.08s-9-2.56-11.62,0c-2.87,2.88,1.26,5.09,3.63,6.16a32.76,32.76,0,0,0,17.19,2.48A1.64,1.64,0,0,0,17,37.68C14,35.53-.16,27.75-1.44,35.13c-1.09,6.29,12.17,6.92,15.87,6.54a1.63,1.63,0,0,0,1.22-2.27,7.69,7.69,0,0,0-7-5.31c-2.42,0-4.88,1.26-5,3.87-0.24,5.11,10,8.13,11.22,3.1a1.77,1.77,0,0,0-.6-1.91c-2.6-2.31-6-1.6-8.67,0a1.64,1.64,0,0,0,.09,2.6,4.81,4.81,0,0,0,6.42-.05l-2.66-1,0.19,2.65a1.67,1.67,0,0,0,3,.72,7.12,7.12,0,0,0,1.39-3c0.56-2-2.52-3.18-3.09-1.16l-1,2.21,3,0.72-0.19-2.65a1.68,1.68,0,0,0-2.66-1l-2.44,0,0.09,2.6,4.67,0-0.6-1.91c0,0.12-2.84,1.38-2.11-1.06s2.55,0.6,3,1.87l1.22-2.27a19.36,19.36,0,0,1-7.56-.58c-0.73-.21-4.05-0.93-2.73-2.31C4.07,35,8.34,36.67,9,36.9a25.88,25.88,0,0,1,6.14,3.42l0.67-2.94A29.77,29.77,0,0,1,5.34,36.8,29,29,0,0,1,.9,35.34,13,13,0,0,1-1,34.47c0.09-.81,2.72-0.34,3.2-0.28a14.56,14.56,0,0,1,4.54,1.14c2.36,1.14,1.88,4.52-1,4.24s-10.12-2.86-10.48-6c-0.43-3.71,7.49-1,9.38.33C6,34.88,9,37.85,6.4,39,5,39.6,2.48,39.22,1,39s-3.46-.33-4.68-1.12c-5.11-3.29.3-5.6,3.06-5.79a16.62,16.62,0,0,1,4.76.33c0.88,0.21,3.2.8,3.64,1.71,2,4-2.33,4-4.07,4-0.76,0-3,.1-3.58-0.44l-0.33-1.67q-1.24-1.93.67-2C2,33,6.91,33.34,7.68,35.16L7.32,37.39q0.59,2.52-1.68,2.74A6.67,6.67,0,0,1,2,40.68a19.07,19.07,0,0,1-5.5-1.1c-2.39-.91-2.37-0.94-2.78-3.5-0.35-2.2-.62-2.28.81-3.57A12.39,12.39,0,0,1-2,30.36a7,7,0,0,1,2.73-.72l1.51-.24,1.59,4.23c-0.4,1.51-3.74,3.19-5,3.75-1,.44-3.26,1.46-4.38,1.09-1.81-.59-3.41-3.58-3-5.24a6,6,0,0,1,.81-1.66c1.88-3.07,6.3-5.25,9.8-3.35,2.73,1.48,2.88,4.55.45,6.51a6.86,6.86,0,0,1-5.3,1.15c-2.69-.4-5-2.35-4.52-5.34,0.29-1.78,3.08-3.41,4.55-4.06C2.8,24,6.17,28.56,9.6,32.32c1.37,1.51,3.64,3.48,3.88,5.58,0.41,3.58-3.27,5.53-6.2,5.83-4.06.4-8.46-1.45-12.07-3.23-2.79-1.38-6.88-3.7-4.54-7.14A12.62,12.62,0,0,1-3.2,28.84c2.07-.8.61-4-1.44-3.17h0Z"/><path class="cls-4" d="M3.21,11.55A1.66,1.66,0,0,0,3.3,9.38a12.65,12.65,0,0,1,.24-1.62A1.67,1.67,0,0,0,1.74,5.6l-0.28,0c-0.1-.12-0.2-0.25-0.31-0.36A1.65,1.65,0,0,0-1.14,5c-0.13.13-.23,0.28-0.35,0.41A4.9,4.9,0,0,0-4.37,8.58c-0.66,1.83-1.21,4.76.31,6.33a3.24,3.24,0,0,0,1.54.87A1.67,1.67,0,0,0,.12,17,7.63,7.63,0,0,0,3.21,11.55Z"/><path class="cls-4" d="M12.42,12.08A5.25,5.25,0,0,0,9.66,7.81a1.79,1.79,0,0,0-.77-0.28,4,4,0,0,0-2.43.14A1.55,1.55,0,0,0,5.51,9c0,0.37,0,.74-0.06,1.11a5.46,5.46,0,0,0-1.09,2c-0.79,2.77.83,5.44,2.49,7.58a1.7,1.7,0,0,0,1.93.48C11.74,19.2,12.64,14.83,12.42,12.08Z"/><path class="cls-4" d="M18.8,29.27a11.79,11.79,0,0,0,.45-1.09c2.46-1.78,2-5.38,1.07-7.88a5.69,5.69,0,0,0-2.15-3.12L18,16.91a1.63,1.63,0,0,0-2.46-.07c-4.17,1.68-3.57,7.31-1.26,10.22A9.48,9.48,0,0,0,16,29.69,1.64,1.64,0,0,0,18.8,29.27Z"/><polygon class="cls-1" points="49.6 -19.81 82.5 3.88 105.12 -27.53 72.23 -51.22 49.6 -19.81"/></pattern></defs><title>placas</title><rect class="cls-5" width="500" height="500"/><text class="cls-6" transform="translate(33.61 283.46)">NOMBRE </text></svg>